<svg width="231" height="209" viewBox="0 0 231 209" fill="none" xmlns="http://www.w3.org/2000/svg">
<path d="M31.5 209H9V104H41L114 158L187.5 104H221V209H197.5V124.5L114 184L31.5 125V209Z" fill="#30B21E"/>
<ellipse cx="70" cy="68.5" rx="23" ry="21.5" fill="#1E7113"/>
<ellipse cx="115" cy="68.5" rx="22" ry="21.5" fill="#5BC269"/>
<ellipse cx="160.5" cy="68.5" rx="23.5" ry="21.5" fill="#1E7113"/>
<path d="M231.006 68C231.006 79.8741 220.485 89.5 207.506 89.5C194.528 89.5 184.006 79.8741 184.006 68C184.006 56.1259 194.528 46.5 207.506 46.5C216.006 57 220.506 58.5 231.006 68Z" fill="#5BC269"/>
<path d="M47 68.5C47 80.3741 36.4787 90 23.5 90C10.5213 90 0 79.8741 0 68C11.5 59.5 15 58 23.5 47C36.4787 47 47 56.6259 47 68.5Z" fill="#5BC269"/>
<path d="M144.168 0H124L137.109 68H184L144.168 0Z" fill="white"/>
<path d="M164.233 0H144L183.959 68H231L164.233 0Z" fill="#30B21E"/>
<path d="M125 0H105.5L92.5 68H137.5L125 0Z" fill="#30B21E"/>
<path d="M106 0H85.3277L46 68H92.8908L106 0Z" fill="white"/>
<path d="M67.0412 0H87L46.5706 68H0L67.0412 0Z" fill="#30B21E"/>
</svg>
